<svg xmlns="http://www.w3.org/2000/svg" height="40" version="1.1" viewBox="-17 0 134 134.12257" width="40">
	<g id="surface1">
	<path d="M 40.945312 124.355469 L 60.710938 124.355469 L 53.324219 59.339844 C 56.039062 57.964844 57.121094 54.652344 55.742188 51.941406 C 54.367188 49.230469 51.054688 48.148438 48.34375 49.519531 C 45.632812 50.898438 44.550781 54.210938 45.921875 56.921875 C 46.457031 57.964844 47.300781 58.808594 48.34375 59.339844 Z M 40.945312 124.355469 " style=" stroke:none;fill-rule:nonzero;fill:#459078;fill-opacity:1;" />
	<path d="M 39.824219 134.121094 L 61.820312 134.121094 L 61.132812 128.042969 L 40.507812 128.042969 Z M 39.824219 134.121094 " style=" stroke:none;fill-rule:nonzero;fill:#459078;fill-opacity:1;" />
	<path d="M 55.742188 61.007812 C 62.21875 65.496094 82.09375 77.972656 100.574219 76.453125 L 100.65625 76.253906 C 89.292969 61.578125 66.660156 55.394531 58.976562 53.648438 C 58.992188 53.917969 58.992188 54.1875 58.976562 54.457031 C 58.988281 57.027344 57.789062 59.453125 55.742188 61.007812 Z M 55.742188 61.007812 " style=" stroke:none;fill-rule:nonzero;fill:#459078;fill-opacity:1;" />
	<path d="M 45.628906 60.847656 C 43.40625 59.046875 42.292969 56.203125 42.71875 53.375 C 34.96875 54.785156 12.09375 60.011719 0.0625 74.183594 L 0.140625 74.382812 C 18.582031 76.636719 38.96875 65.003906 45.628906 60.847656 Z M 45.628906 60.847656 " style=" stroke:none;fill-rule:nonzero;fill:#459078;fill-opacity:1;" />
	<path d="M 50.824219 46.265625 C 52.230469 46.265625 53.609375 46.628906 54.828125 47.320312 C 56.324219 39.589844 59.8125 16.378906 50.921875 0 L 50.710938 0 C 41.867188 16.351562 45.308594 39.566406 46.800781 47.320312 C 48.027344 46.628906 49.410156 46.265625 50.824219 46.265625 Z M 50.824219 46.265625 " style=" stroke:none;fill-rule:nonzero;fill:#459078;fill-opacity:1;" />
	</g>
</svg>